<svg width="300" height="200" viewBox="0 0 300 200" xmlns="http://www.w3.org/2000/svg">
  <defs>
    <linearGradient id="woodGradient" x1="0%" y1="0%" x2="0%" y2="100%">
      <stop offset="0%" style="stop-color:#DEB887;stop-opacity:1" />
      <stop offset="100%" style="stop-color:#8B7355;stop-opacity:1" />
    </linearGradient>
  </defs>
  
  <!-- Background -->
  <rect width="300" height="200" fill="#E6F3FF"/>
  
  <!-- Ground -->
  <ellipse cx="150" cy="180" rx="140" ry="20" fill="#90EE90"/>
  
  <!-- Table -->
  <rect x="120" y="100" width="60" height="8" fill="url(#woodGradient)"/>
  <rect x="135" y="108" width="8" height="30" fill="url(#woodGradient)"/>
  <rect x="157" y="108" width="8" height="30" fill="url(#woodGradient)"/>
  
  <!-- Chair 1 -->
  <rect x="80" y="110" width="25" height="6" fill="#4169E1"/>
  <rect x="80" y="85" width="25" height="25" fill="#4169E1"/>
  <rect x="85" y="116" width="4" height="25" fill="#2F4F4F"/>
  <rect x="96" y="116" width="4" height="25" fill="#2F4F4F"/>
  
  <!-- Chair 2 -->
  <rect x="195" y="110" width="25" height="6" fill="#DC143C"/>
  <rect x="195" y="85" width="25" height="25" fill="#DC143C"/>
  <rect x="200" y="116" width="4" height="25" fill="#2F4F4F"/>
  <rect x="211" y="116" width="4" height="25" fill="#2F4F4F"/>
  
  <!-- Table items -->
  <circle cx="140" cy="104" r="3" fill="#FFD700"/>
  <circle cx="155" cy="104" r="2" fill="#FF6347"/>
  <rect x="145" y="102" width="8" height="4" fill="#32CD32"/>
</svg> 