<svg width="300" height="200" viewBox="0 0 300 200" xmlns="http://www.w3.org/2000/svg">
  <!-- Background -->
  <rect width="300" height="200" fill="#F5F5DC"/>
  
  <!-- Ground/Counter -->
  <rect x="0" y="140" width="300" height="60" fill="#DEB887"/>
  <rect x="0" y="140" width="300" height="10" fill="#D2B48C"/>
  
  <!-- Large pot -->
  <ellipse cx="120" cy="130" rx="35" ry="15" fill="#C0C0C0"/>
  <rect x="85" y="115" width="70" height="15" fill="#C0C0C0"/>
  <ellipse cx="120" cy="115" rx="35" ry="15" fill="#E6E6E6"/>
  
  <!-- Pot handle -->
  <rect x="75" y="120" width="15" height="4" fill="#2F4F4F" rx="2"/>
  <rect x="160" y="120" width="15" height="4" fill="#2F4F4F" rx="2"/>
  
  <!-- Pan -->
  <ellipse cx="200" cy="125" rx="30" ry="12" fill="#696969"/>
  <rect x="170" y="120" width="60" height="5" fill="#696969"/>
  <ellipse cx="200" cy="120" rx="30" ry="12" fill="#A9A9A9"/>
  
  <!-- Pan handle -->
  <rect x="230" y="122" width="25" height="3" fill="#8B4513" rx="1"/>
  
  <!-- Camping stove -->
  <rect x="80" y="80" width="40" height="20" fill="#2F4F4F" rx="3"/>
  <circle cx="90" cy="85" r="3" fill="#FF4500"/>
  <circle cx="100" cy="85" r="3" fill="#FF4500"/>
  <circle cx="110" cy="85" r="3" fill="#FF4500"/>
  
  <!-- Plates -->
  <ellipse cx="180" cy="145" rx="20" ry="8" fill="#F0F0F0"/>
  <ellipse cx="190" cy="143" rx="20" ry="8" fill="#F0F0F0"/>
  <ellipse cx="200" cy="141" rx="20" ry="8" fill="#F0F0F0"/>
  
  <!-- Utensils -->
  <rect x="240" y="100" width="2" height="30" fill="#C0C0C0"/>
  <ellipse cx="241" cy="95" rx="3" ry="8" fill="#C0C0C0"/>
  
  <rect x="250" y="100" width="2" height="30" fill="#C0C0C0"/>
  <rect x="248" y="95" width="6" height="3" fill="#C0C0C0"/>
  
  <rect x="260" y="100" width="2" height="30" fill="#C0C0C0"/>
  <circle cx="261" cy="95" r="4" fill="#C0C0C0"/>
  
  <!-- Steam from pot -->
  <circle cx="110" cy="95" r="2" fill="#D3D3D3" opacity="0.7"/>
  <circle cx="120" cy="85" r="3" fill="#D3D3D3" opacity="0.5"/>
  <circle cx="130" cy="75" r="2" fill="#D3D3D3" opacity="0.6"/>
  <circle cx="125" cy="65" r="1.5" fill="#D3D3D3" opacity="0.4"/>
</svg> 