<svg width="300" height="200" viewBox="0 0 300 200" xmlns="http://www.w3.org/2000/svg">
  <!-- Background -->
  <rect width="300" height="200" fill="#E6E6FA"/>
  
  <!-- Ground/Tent floor -->
  <rect x="0" y="140" width="300" height="60" fill="#F5DEB3"/>
  
  <!-- Sleeping mat -->
  <rect x="50" y="120" width="200" height="15" fill="#4169E1" rx="5"/>
  <rect x="50" y="120" width="200" height="5" fill="#1E90FF" rx="2"/>
  
  <!-- Sleeping bag -->
  <ellipse cx="150" cy="100" rx="80" ry="30" fill="#228B22"/>
  <ellipse cx="150" cy="95" rx="75" ry="25" fill="#32CD32"/>
  <ellipse cx="150" cy="90" rx="70" ry="20" fill="#90EE90"/>
  
  <!-- Pillow -->
  <ellipse cx="120" cy="80" rx="25" ry="12" fill="#FFB6C1"/>
  <ellipse cx="120" cy="77" rx="22" ry="10" fill="#FFC0CB"/>
  
  <!-- Sleeping bag zipper -->
  <line x1="80" y1="90" x2="80" y2="120" stroke="#FFD700" stroke-width="3"/>
  <circle cx="80" cy="120" r="3" fill="#FFD700"/>
  
  <!-- Stars in background -->
  <circle cx="50" cy="30" r="2" fill="#FFD700"/>
  <circle cx="100" cy="20" r="1.5" fill="#FFD700"/>
  <circle cx="200" cy="25" r="2" fill="#FFD700"/>
  <circle cx="250" cy="35" r="1.5" fill="#FFD700"/>
  
  <!-- Moon -->
  <circle cx="230" cy="40" r="15" fill="#F0E68C"/>
  <circle cx="235" cy="35" r="12" fill="#E6E6FA"/>
</svg> 